<svg width="2346" height="675" viewBox="0 0 2346 675" fill="none" xmlns="http://www.w3.org/2000/svg">
<g clip-path="url(#clip0_1_1422)">
<path d="M1702.4 674.62L1726.79 584.97H1740.06L1786.14 657.08L1805.87 584.97H1820.57L1796.19 674.62H1782.74L1736.65 602.649L1717.11 674.62H1702.4Z" fill="#FF0000"/>
<path d="M1626.68 674.524C1609.32 674.524 1597.1 670.967 1590.04 663.854C1582.97 656.65 1581.66 645.26 1586.09 629.682C1589.08 619.237 1593.27 610.728 1598.66 604.154C1604.17 597.581 1611.29 592.719 1620.04 589.567C1628.78 586.416 1639.49 584.84 1652.19 584.84C1669.43 584.84 1681.58 588.442 1688.65 595.645C1695.83 602.759 1697.21 614.104 1692.78 629.682C1688.35 645.26 1680.87 656.65 1670.33 663.854C1659.91 670.967 1645.36 674.524 1626.68 674.524ZM1629.38 665.069C1638.12 665.069 1645.66 663.944 1652.01 661.693C1658.35 659.442 1663.68 655.75 1667.99 650.617C1672.3 645.395 1675.66 638.416 1678.05 629.682C1680.57 620.948 1681.29 614.014 1680.21 608.882C1679.25 603.659 1676.26 599.922 1671.23 597.671C1666.32 595.42 1659.07 594.295 1649.49 594.295C1640.75 594.295 1633.21 595.42 1626.86 597.671C1620.51 599.922 1615.19 603.659 1610.88 608.882C1606.68 614.014 1603.33 620.948 1600.82 629.682C1598.42 638.416 1597.64 645.395 1598.48 650.617C1599.44 655.75 1602.43 659.442 1607.46 661.693C1612.49 663.944 1619.8 665.069 1629.38 665.069Z" fill="#FF0000"/>
<path d="M1537.98 674.62L1562.36 584.97H1577.07L1552.68 674.62H1537.98Z" fill="#FF0000"/>
<path d="M1471.85 674.524C1458.32 674.524 1447.12 673.173 1438.26 670.472L1440.96 660.612C1445.63 662.053 1450.66 663.178 1456.04 663.989C1461.55 664.709 1467.3 665.069 1473.29 665.069C1483.58 665.069 1491.54 664.034 1497.17 661.963C1502.92 659.802 1506.63 655.975 1508.31 650.482C1509.39 646.88 1509.15 644.134 1507.59 642.243C1506.03 640.262 1503.04 638.596 1498.61 637.246C1494.3 635.895 1488.31 634.454 1480.65 632.924C1468.92 630.492 1460.95 627.386 1456.76 623.604C1452.69 619.822 1451.43 614.87 1452.99 608.747C1455.03 601.363 1459.99 595.555 1467.9 591.323C1475.92 587.001 1487.53 584.84 1502.74 584.84C1509.45 584.84 1515.55 585.2 1521.06 585.92C1526.57 586.641 1530.76 587.406 1533.63 588.217L1530.94 597.941C1526.99 596.771 1522.56 595.87 1517.65 595.24C1512.86 594.61 1507.77 594.295 1502.38 594.295C1492.56 594.295 1484.66 595.375 1478.67 597.536C1472.81 599.697 1469.15 603.434 1467.72 608.747C1466.88 611.718 1467.12 614.104 1468.44 615.905C1469.75 617.706 1472.45 619.282 1476.52 620.632C1480.59 621.893 1486.4 623.289 1493.94 624.82C1506.63 627.341 1515.07 630.672 1519.26 634.814C1523.57 638.957 1524.83 644.179 1523.04 650.482C1520.88 658.136 1515.73 664.079 1507.59 668.311C1499.45 672.453 1487.53 674.524 1471.85 674.524Z" fill="#FF0000"/>
<path d="M1398.47 674.524L1422.9 584.84H1437.63L1413.2 674.524H1398.47Z" fill="#FF0000"/>
<path d="M1304.37 674.524L1328.69 584.84H1343.35L1321.35 665.611H1382.68L1380.36 674.524H1304.37Z" fill="#FF0000"/>
<path d="M1209.63 674.524L1234.14 584.84H1248.92L1226.75 665.611H1288.58L1286.24 674.524H1209.63Z" fill="#FF0000"/>
<path d="M1134.05 674.524C1116.69 674.524 1104.47 670.967 1097.41 663.854C1090.34 656.65 1089.03 645.26 1093.46 629.682C1096.45 619.237 1100.64 610.728 1106.03 604.154C1111.54 597.581 1118.66 592.719 1127.4 589.567C1136.15 586.416 1146.86 584.84 1159.56 584.84C1176.8 584.84 1188.95 588.442 1196.02 595.645C1203.2 602.759 1204.58 614.104 1200.15 629.682C1195.72 645.26 1188.23 656.65 1177.7 663.854C1167.28 670.967 1152.73 674.524 1134.05 674.524ZM1136.74 665.069C1145.49 665.069 1153.03 663.944 1159.38 661.693C1165.72 659.442 1171.05 655.75 1175.36 650.617C1179.67 645.395 1183.03 638.416 1185.42 629.682C1187.93 620.948 1188.65 614.014 1187.58 608.882C1186.62 603.659 1183.62 599.922 1178.59 597.671C1173.69 595.42 1166.44 594.295 1156.86 594.295C1148.12 594.295 1140.58 595.42 1134.23 597.671C1127.88 599.922 1122.55 603.659 1118.24 608.882C1114.05 614.014 1110.7 620.948 1108.18 629.682C1105.79 638.416 1105.01 645.395 1105.85 650.617C1106.81 655.75 1109.8 659.442 1114.83 661.693C1119.86 663.944 1127.16 665.069 1136.74 665.069Z" fill="#FF0000"/>
<path d="M1029.69 674.524C1017.88 674.524 1008.34 672.768 1001.07 669.256C993.792 665.655 988.963 660.657 986.578 654.264C984.193 647.781 984.193 640.217 986.578 631.573C989.321 622.118 993.435 613.879 998.92 606.856C1004.52 599.832 1011.92 594.43 1021.1 590.648C1030.28 586.776 1041.55 584.84 1054.91 584.84C1061.59 584.84 1067.49 585.2 1072.62 585.92C1077.86 586.641 1082.69 587.631 1087.1 588.892L1084.42 598.617C1080.01 597.266 1075.24 596.23 1070.11 595.51C1064.98 594.7 1059.44 594.295 1053.48 594.295C1038.81 594.295 1027.24 597.626 1018.78 604.289C1010.43 610.863 1004.58 619.957 1001.25 631.573C999.218 638.686 998.801 644.764 999.993 649.807C1001.31 654.759 1004.64 658.541 1010.01 661.152C1015.5 663.764 1023.43 665.069 1033.8 665.069C1039.17 665.069 1044.71 664.754 1050.44 664.124C1056.16 663.494 1061.59 662.503 1066.71 661.152L1064.03 671.012C1059.14 672.093 1053.83 672.948 1048.11 673.579C1042.51 674.209 1036.36 674.524 1029.69 674.524Z" fill="#FF0000"/>
<path d="M859.553 674.524L868.705 641.101L842.684 584.84H857.22L877.857 631.353L923.976 584.84H939.947L883.42 641.101L874.268 674.524H859.553Z" fill="#FF0000"/>
<path d="M722.053 674.524L746.497 584.84H791.792C807.849 584.84 818.992 588.368 825.223 595.424C831.454 602.48 832.353 614.085 827.92 630.239C825.164 640.451 821.329 648.854 816.416 655.445C811.623 661.944 805.332 666.772 797.543 669.928C789.875 672.992 780.348 674.524 768.965 674.524H722.053ZM739.128 665.611H766.988C775.136 665.611 782.146 664.683 788.017 662.826C794.009 660.876 799.041 657.349 803.115 652.242C807.309 647.136 810.665 639.802 813.181 630.239C815.817 620.398 816.776 612.878 816.057 607.679C815.458 602.387 812.761 598.766 807.968 596.816C803.295 594.867 796.225 593.892 786.759 593.892H758.899L739.128 665.611Z" fill="#FF0000"/>
<path d="M646.859 674.524C629.594 674.524 617.449 670.967 610.423 663.854C603.398 656.65 602.089 645.26 606.494 629.682C609.471 619.237 613.638 610.728 618.996 604.154C624.474 597.581 631.558 592.719 640.25 589.567C648.942 586.416 659.599 584.84 672.22 584.84C689.366 584.84 701.452 588.442 708.477 595.645C715.621 602.759 716.99 614.104 712.584 629.682C708.179 645.26 700.737 656.65 690.259 663.854C679.9 670.967 665.433 674.524 646.859 674.524ZM649.538 665.069C658.23 665.069 665.731 663.944 672.042 661.693C678.352 659.442 683.651 655.75 687.937 650.617C692.224 645.395 695.558 638.416 697.939 629.682C700.439 620.948 701.154 614.014 700.082 608.882C699.13 603.659 696.153 599.922 691.152 597.671C686.27 595.42 679.067 594.295 669.541 594.295C660.849 594.295 653.348 595.42 647.037 597.671C640.726 599.922 635.428 603.659 631.141 608.882C626.974 614.014 623.64 620.948 621.14 629.682C618.758 638.416 617.984 645.395 618.818 650.617C619.77 655.75 622.747 659.442 627.748 661.693C632.749 663.944 640.012 665.069 649.538 665.069Z" fill="#FF0000"/>
<path d="M485.21 674.62L509.597 584.97H561.957C572.954 584.97 580.785 587.058 585.447 591.234C590.228 595.318 591.603 601.118 589.571 608.635C586.821 618.565 580.187 625.155 569.667 628.403C575.405 629.888 579.47 632.393 581.86 635.92C584.251 639.447 584.67 643.808 583.116 649.006C580.486 657.636 575.943 664.086 569.488 668.356C563.032 672.532 553.708 674.62 541.515 674.62H485.21ZM513.542 624.226H551.377C558.669 624.226 564.228 622.881 568.053 620.189C571.879 617.405 574.389 613.832 575.584 609.47C576.541 606.037 576.72 603.16 576.122 600.839C575.644 598.519 573.911 596.756 570.922 595.55C568.053 594.343 563.451 593.74 557.115 593.74H521.97L513.542 624.226ZM502.245 665.989H541.336C549.106 665.989 555.143 664.69 559.446 662.091C563.75 659.4 566.738 654.899 568.412 648.588C569.368 645.154 569.488 642.277 568.771 639.957C568.053 637.637 566.081 635.874 562.853 634.667C559.626 633.461 554.665 632.857 547.97 632.857H511.211L502.245 665.989Z" fill="#FF0000"/>
<path d="M1721.63 541.261V382.387H1663.08V358.229H1810.87V382.387H1752.61V541.261H1721.63Z" fill="#FF0000"/>
<path d="M1560.76 541.261C1535.57 541.261 1515.97 535.287 1501.95 523.338C1488.12 511.389 1481.21 494.118 1481.21 471.527V358.104H1512.18V470.407C1512.18 485.53 1516.34 496.826 1524.68 504.294C1533.2 511.762 1545.23 515.496 1560.76 515.496C1576.1 515.496 1587.94 511.762 1596.27 504.294C1604.79 496.826 1609.05 485.53 1609.05 470.407V358.104H1639.74V471.527C1639.74 494.118 1632.82 511.389 1619 523.338C1605.17 535.287 1585.76 541.261 1560.76 541.261Z" fill="#FF0000"/>
<path d="M1291.02 541.261L1360.94 358.229H1395.61L1464.96 541.261H1433.13L1414.94 494.082H1341.33L1323.14 541.261H1291.02ZM1346.16 470.208H1409.82L1377.99 386.366L1346.16 470.208Z" fill="#FF0000"/>
<path d="M1128.62 541.261C1104.94 541.261 1085.9 538.278 1071.5 532.313V505.467C1079.65 508.45 1088.36 510.873 1097.65 512.738C1107.12 514.602 1116.49 515.534 1125.78 515.534C1140.36 515.534 1151.25 513.856 1158.45 510.5C1165.84 507.145 1169.53 500.433 1169.53 490.366C1169.53 484.214 1168.02 479.273 1164.99 475.545C1161.96 471.816 1156.94 468.647 1149.93 466.037C1142.92 463.24 1133.26 460.351 1120.95 457.368C1101.24 452.334 1087.42 445.996 1079.46 438.352C1071.5 430.522 1067.53 419.802 1067.53 406.193C1067.53 390.346 1073.4 377.949 1085.14 369C1096.89 360.051 1114.41 355.577 1137.71 355.577C1148.32 355.577 1158.26 356.323 1167.54 357.814C1177.02 359.306 1184.4 360.984 1189.71 362.848V389.694C1175.31 384.287 1159.4 381.584 1141.97 381.584C1128.33 381.584 1117.72 383.355 1110.15 386.897C1102.57 390.44 1098.78 396.871 1098.78 406.193C1098.78 411.599 1100.11 415.98 1102.76 419.336C1105.41 422.692 1109.96 425.582 1116.4 428.005C1123.03 430.429 1132.12 433.132 1143.68 436.115C1158.64 439.843 1170.2 444.318 1178.34 449.538C1186.68 454.571 1192.45 460.537 1195.67 467.435C1199.08 474.147 1200.79 481.79 1200.79 490.366C1200.79 506.213 1194.82 518.703 1182.89 527.838C1170.95 536.787 1152.86 541.261 1128.62 541.261Z" fill="#FF0000"/>
<path d="M1000.7 410.809L1015.76 355.388H1042.76L1024.01 410.809H1000.7Z" fill="#FF0000"/>
<path d="M816.819 541.261V358.229H844.103L939.598 492.945V358.229H970.293V541.261H943.008L847.798 406.83V541.261H816.819Z" fill="#FF0000"/>
<path d="M630.861 541.261V358.229H661.84V437.808H749.945V358.229H780.924V541.261H749.945V461.682H661.84V541.261H630.861Z" fill="#FF0000"/>
<path d="M480.921 540.946C442.647 540.946 414.004 530.94 394.992 510.927C375.98 490.664 366.474 459.394 366.474 417.118C366.474 373.09 375.98 341.194 394.992 321.432C414.004 301.669 442.647 291.788 480.921 291.788C519.446 291.788 548.089 301.669 566.851 321.432C585.863 341.194 595.369 373.09 595.369 417.118C595.369 459.394 585.863 490.664 566.851 510.927C548.089 530.94 519.446 540.946 480.921 540.946ZM480.921 506.424C506.187 506.424 524.699 499.545 536.456 485.786C548.464 471.777 554.468 448.888 554.468 417.118C554.468 383.596 548.464 360.206 536.456 346.948C524.699 333.439 506.187 326.685 480.921 326.685C455.905 326.685 437.394 333.439 425.386 346.948C413.629 360.206 407.75 383.596 407.75 417.118C407.75 448.888 413.629 471.777 425.386 485.786C437.394 499.545 455.905 506.424 480.921 506.424Z" fill="#FF0000"/>
<path d="M1949.84 541.262C1911.61 541.262 1883 531.268 1864.01 511.281C1845.02 491.044 1835.53 459.814 1835.53 417.591C1835.53 373.618 1845.02 341.764 1864.01 322.026C1883 302.289 1911.61 292.42 1949.84 292.42C1988.32 292.42 2016.93 302.289 2035.67 322.026C2054.66 341.764 2064.16 373.618 2064.16 417.591C2064.16 459.814 2054.66 491.044 2035.67 511.281C2016.93 531.268 1988.32 541.262 1949.84 541.262ZM1949.84 506.784C1975.08 506.784 1993.57 499.913 2005.31 486.172C2017.31 472.181 2023.3 449.32 2023.3 417.591C2023.3 384.112 2017.31 360.752 2005.31 347.51C1993.57 334.019 1975.08 327.273 1949.84 327.273C1924.86 327.273 1906.36 334.019 1894.37 347.51C1882.63 360.752 1876.76 384.112 1876.76 417.591C1876.76 449.32 1882.63 472.181 1894.37 486.172C1906.36 499.913 1924.86 506.784 1949.84 506.784Z" fill="#FF0000"/>
<path d="M270.6 541.261C255.014 541.261 241.708 539.114 230.684 534.82V509.055C235.246 510.922 240.568 512.509 246.65 513.816C252.923 514.936 259.1 515.496 265.183 515.496C277.918 515.496 286.756 512.976 291.698 507.935C296.83 502.707 299.396 494.398 299.396 483.009V358.104H330.474V488.05C330.474 505.227 325.437 518.39 315.363 527.539C305.479 536.687 290.558 541.261 270.6 541.261Z" fill="#FF0000"/>
<path d="M998.974 199.538C565.864 157.848 152.632 292.182 0.155762 364.56C190.269 291.217 669.45 218.65 919.358 255.993C1171.23 293.629 1609.85 240.069 1776.32 144.53C1697.66 180.237 1432.09 241.228 998.974 199.538Z" fill="#FF0000"/>
<path d="M1398.5 2.66872C1224.8 -20.4922 900.541 112.684 760.127 182.167C877.863 151.285 1120.29 68.4439 1174.13 57.6758C1275.46 37.41 1356.52 24.3818 1521.55 57.6758C1576.55 64.9137 1968.36 155.628 2162.82 209.67C2139.66 217.39 2063.11 220.652 2025.3 209.67C1922.05 179.682 1790.68 202.103 1737.63 216.63C1711.27 223.847 1523.96 245.376 1428.9 255.992C1494.04 255.992 1715.43 280.05 1840.89 251.051C1907.84 235.577 1959.63 216.63 2086.89 264.314C2210.12 310.487 2317.71 175.893 2345.21 127.159C2304.68 168.849 2217.34 171.551 2178.74 167.691C1991.04 122.334 1572.21 25.8297 1398.5 2.66872Z" fill="#FF0000"/>
<path d="M270.849 302.314C223.369 306.946 126.575 358.287 84.1133 383.378C286.772 361.375 336.472 314.377 335.989 293.629C334.059 294.594 318.329 297.682 270.849 302.314Z" fill="#FF0000"/>
</g>
<defs>
<clipPath id="clip0_1_1422">
<rect width="2346" height="675" fill="white"/>
</clipPath>
</defs>
</svg>
