<svg width="168" height="48" viewBox="0 0 168 48" fill="none" xmlns="http://www.w3.org/2000/svg">
<g clip-path="url(#clip0_1_302)">
<path d="M122.646 47.4914L124.38 41.1162H125.324L128.601 46.244L130.004 41.1162H131.049L129.315 47.4914H128.359L125.081 42.3735L123.692 47.4914H122.646Z" fill="white"/>
<path d="M117.262 47.485C116.028 47.485 115.159 47.232 114.657 46.7261C114.154 46.2139 114.061 45.4039 114.376 44.2962C114.588 43.5534 114.886 42.9483 115.269 42.4809C115.661 42.0135 116.168 41.6676 116.79 41.4436C117.411 41.2194 118.173 41.1074 119.076 41.1074C120.302 41.1074 121.167 41.3635 121.669 41.8758C122.179 42.3816 122.277 43.1884 121.962 44.2962C121.647 45.4039 121.116 46.2139 120.366 46.7261C119.625 47.232 118.59 47.485 117.262 47.485ZM117.454 46.8126C118.076 46.8126 118.612 46.7326 119.063 46.5725C119.514 46.4124 119.893 46.1498 120.2 45.7849C120.506 45.4135 120.745 44.9173 120.915 44.2962C121.094 43.675 121.145 43.182 121.069 42.817C121 42.4457 120.788 42.1799 120.43 42.0198C120.081 41.8598 119.565 41.7797 118.884 41.7797C118.263 41.7797 117.726 41.8598 117.275 42.0198C116.824 42.1799 116.445 42.4457 116.138 42.817C115.84 43.182 115.602 43.675 115.423 44.2962C115.252 44.9173 115.197 45.4135 115.257 45.7849C115.325 46.1498 115.538 46.4124 115.895 46.5725C116.253 46.7326 116.773 46.8126 117.454 46.8126Z" fill="white"/>
<path d="M110.955 47.4914L112.689 41.1162H113.735L112 47.4914H110.955Z" fill="white"/>
<path d="M106.252 47.485C105.29 47.485 104.493 47.3889 103.863 47.1968L104.055 46.4957C104.387 46.5981 104.745 46.6781 105.128 46.7358C105.519 46.787 105.928 46.8126 106.354 46.8126C107.086 46.8126 107.653 46.739 108.052 46.5917C108.461 46.438 108.725 46.1659 108.845 45.7753C108.921 45.5192 108.904 45.3239 108.793 45.1894C108.682 45.0485 108.47 44.9301 108.155 44.834C107.848 44.738 107.422 44.6355 106.878 44.5267C106.044 44.3538 105.477 44.1328 105.179 43.864C104.889 43.595 104.8 43.2428 104.911 42.8074C105.056 42.2824 105.409 41.8694 105.971 41.5684C106.541 41.2611 107.367 41.1074 108.449 41.1074C108.926 41.1074 109.359 41.133 109.751 41.1842C110.143 41.2354 110.441 41.2899 110.645 41.3475L110.454 42.039C110.173 41.9558 109.858 41.8918 109.509 41.847C109.168 41.8021 108.806 41.7797 108.423 41.7797C107.725 41.7797 107.163 41.8566 106.737 42.0102C106.32 42.1639 106.061 42.4297 105.958 42.8074C105.898 43.0187 105.916 43.1884 106.009 43.3165C106.103 43.4446 106.295 43.5566 106.584 43.6526C106.873 43.7423 107.287 43.8415 107.823 43.9504C108.725 44.1296 109.325 44.3666 109.623 44.6611C109.93 44.9557 110.019 45.3271 109.892 45.7753C109.738 46.3196 109.372 46.7422 108.793 47.0431C108.215 47.3377 107.367 47.485 106.252 47.485Z" fill="white"/>
<path d="M101.033 47.485L102.77 41.1074H103.818L102.081 47.485H101.033Z" fill="white"/>
<path d="M94.3418 47.485L96.0712 41.1074H97.1137L95.5493 46.8511H99.9105L99.7455 47.485H94.3418Z" fill="white"/>
<path d="M87.6055 47.485L89.3491 41.1074H90.4001L88.8236 46.8511H93.2197L93.0533 47.485H87.6055Z" fill="white"/>
<path d="M82.2308 47.485C80.9963 47.485 80.1273 47.232 79.6253 46.7261C79.1225 46.2139 79.0293 45.4039 79.3444 44.2962C79.557 43.5534 79.855 42.9483 80.2382 42.4809C80.6301 42.0135 81.1364 41.6676 81.7579 41.4436C82.3801 41.2194 83.1417 41.1074 84.0448 41.1074C85.2708 41.1074 86.1348 41.3635 86.6375 41.8758C87.1481 42.3816 87.2462 43.1884 86.9312 44.2962C86.6162 45.4039 86.0836 46.2139 85.3348 46.7261C84.5938 47.232 83.5591 47.485 82.2308 47.485ZM82.4221 46.8126C83.0443 46.8126 83.5805 46.7326 84.032 46.5725C84.4829 46.4124 84.8619 46.1498 85.1684 45.7849C85.4749 45.4135 85.7138 44.9173 85.8838 44.2962C86.063 43.675 86.1134 43.182 86.0373 42.817C85.9691 42.4457 85.7558 42.1799 85.3988 42.0198C85.0496 41.8598 84.5341 41.7797 83.8528 41.7797C83.2313 41.7797 82.6951 41.8598 82.2436 42.0198C81.792 42.1799 81.413 42.4457 81.1065 42.817C80.8086 43.182 80.5703 43.675 80.3918 44.2962C80.2212 44.9173 80.1657 45.4135 80.2254 45.7849C80.2937 46.1498 80.5063 46.4124 80.864 46.5725C81.2217 46.7326 81.7408 46.8126 82.4221 46.8126Z" fill="white"/>
<path d="M74.8082 47.485C73.9683 47.485 73.29 47.3601 72.773 47.1103C72.2555 46.8542 71.912 46.4989 71.7424 46.0442C71.5728 45.5832 71.5728 45.0453 71.7424 44.4307C71.9375 43.7583 72.23 43.1724 72.6202 42.6729C73.019 42.1735 73.5445 41.7893 74.1973 41.5204C74.8501 41.245 75.6516 41.1074 76.6016 41.1074C77.0766 41.1074 77.4962 41.133 77.861 41.1842C78.2336 41.2354 78.5771 41.3059 78.8914 41.3956L78.7001 42.087C78.3865 41.991 78.0473 41.9174 77.6825 41.8662C77.3177 41.8085 76.9237 41.7797 76.4999 41.7797C75.4567 41.7797 74.634 42.0166 74.0324 42.4905C73.4386 42.9579 73.0226 43.6046 72.7858 44.4307C72.6413 44.9365 72.6116 45.3687 72.6965 45.7273C72.79 46.0794 73.0268 46.3484 73.4087 46.5341C73.7991 46.7197 74.363 46.8126 75.1004 46.8126C75.4823 46.8126 75.8763 46.7902 76.2837 46.7454C76.6905 46.7005 77.0766 46.6301 77.4407 46.5341L77.2501 47.2352C76.9024 47.3121 76.5248 47.3729 76.118 47.4177C75.7198 47.4625 75.2825 47.485 74.8082 47.485Z" fill="white"/>
<path d="M62.7112 47.485L63.362 45.1082L61.5117 41.1074H62.5453L64.0128 44.415L67.2924 41.1074H68.4282L64.4084 45.1082L63.7576 47.485H62.7112Z" fill="white"/>
<path d="M52.9336 47.485L54.6719 41.1074H57.8928C59.0346 41.1074 59.8271 41.3582 60.2702 41.86C60.7133 42.3618 60.7772 43.187 60.4619 44.3358C60.2659 45.062 59.9933 45.6595 59.6439 46.1282C59.3031 46.5904 58.8557 46.9337 58.3018 47.1581C57.7565 47.376 57.0791 47.485 56.2696 47.485H52.9336ZM54.1479 46.8511H56.129C56.7084 46.8511 57.2069 46.7851 57.6244 46.6531C58.0505 46.5144 58.4084 46.2635 58.6981 45.9005C58.9963 45.5374 59.2349 45.0158 59.4138 44.3358C59.6013 43.636 59.6695 43.1012 59.6183 42.7315C59.5757 42.3551 59.384 42.0977 59.0432 41.959C58.7109 41.8204 58.2081 41.7511 57.535 41.7511H55.5538L54.1479 46.8511Z" fill="white"/>
<path d="M47.5847 47.485C46.3569 47.485 45.4933 47.232 44.9937 46.7261C44.4942 46.2139 44.401 45.4039 44.7143 44.2962C44.926 43.5534 45.2224 42.9483 45.6034 42.4809C45.9928 42.0135 46.4967 41.6676 47.1148 41.4436C47.7329 41.2194 48.4906 41.1074 49.3882 41.1074C50.6075 41.1074 51.4668 41.3635 51.9664 41.8758C52.4744 42.3816 52.5718 43.1884 52.2585 44.2962C51.9452 45.4039 51.4161 46.2139 50.671 46.7261C49.9343 47.232 48.9056 47.485 47.5847 47.485ZM47.7752 46.8126C48.3933 46.8126 48.9267 46.7326 49.3755 46.5725C49.8242 46.4124 50.201 46.1498 50.5058 45.7849C50.8106 45.4135 51.0477 44.9173 51.2171 44.2962C51.3949 43.675 51.4456 43.182 51.3695 42.817C51.3017 42.4457 51.09 42.1799 50.7345 42.0198C50.3873 41.8598 49.875 41.7797 49.1977 41.7797C48.5796 41.7797 48.0461 41.8598 47.5974 42.0198C47.1486 42.1799 46.7718 42.4457 46.467 42.817C46.1707 43.182 45.9336 43.675 45.7558 44.2962C45.5864 44.9173 45.5314 45.4135 45.5906 45.7849C45.6584 46.1498 45.8701 46.4124 46.2257 46.5725C46.5813 46.7326 47.0978 46.8126 47.7752 46.8126Z" fill="white"/>
<path d="M36.0898 47.4914L37.824 41.1162H41.5473C42.3294 41.1162 42.8862 41.2648 43.2177 41.5617C43.5578 41.8521 43.6556 42.2646 43.511 42.7991C43.3155 43.5053 42.8437 43.9738 42.0957 44.2048C42.5037 44.3104 42.7927 44.4886 42.9627 44.7394C43.1328 44.9901 43.1625 45.3003 43.052 45.6699C42.865 46.2836 42.542 46.7423 42.0829 47.0459C41.6239 47.3428 40.9608 47.4914 40.0937 47.4914H36.0898ZM38.1045 43.9078H40.7951C41.3136 43.9078 41.7088 43.8121 41.9809 43.6207C42.2529 43.4228 42.4314 43.1687 42.5164 42.8585C42.5844 42.6143 42.5972 42.4097 42.5547 42.2447C42.5207 42.0798 42.3974 41.9544 42.1849 41.8686C41.9809 41.7828 41.6536 41.7399 41.2031 41.7399H38.7038L38.1045 43.9078ZM37.3012 46.8776H40.081C40.6335 46.8776 41.0628 46.7852 41.3688 46.6004C41.6748 46.409 41.8874 46.0889 42.0064 45.6402C42.0744 45.396 42.0829 45.1914 42.0319 45.0265C41.9809 44.8615 41.8406 44.7361 41.6111 44.6503C41.3816 44.5645 41.0288 44.5216 40.5528 44.5216H37.9387L37.3012 46.8776Z" fill="white"/>
<path d="M124.013 38.0088V26.7111H119.85V24.9932H130.359V26.7111H126.216V38.0088H124.013Z" fill="white"/>
<path d="M112.575 38.0089C110.784 38.0089 109.39 37.5841 108.393 36.7343C107.409 35.8846 106.918 34.6566 106.918 33.0501V24.9844H109.12V32.9704C109.12 34.0459 109.416 34.8491 110.009 35.3801C110.615 35.9112 111.471 36.1768 112.575 36.1768C113.666 36.1768 114.508 35.9112 115.1 35.3801C115.706 34.8491 116.009 34.0459 116.009 32.9704V24.9844H118.191V33.0501C118.191 34.6566 117.699 35.8846 116.716 36.7343C115.733 37.5841 114.353 38.0089 112.575 38.0089Z" fill="white"/>
<path d="M93.3926 38.0088L98.3647 24.9932H100.83L105.762 38.0088H103.498L102.205 34.6538H96.9702L95.6767 38.0088H93.3926ZM97.3136 32.9561H101.841L99.5771 26.994L97.3136 32.9561Z" fill="white"/>
<path d="M81.8442 38.0089C80.1603 38.0089 78.8063 37.7968 77.7823 37.3725V35.4635C78.3619 35.6756 78.9812 35.848 79.6419 35.9805C80.3153 36.1131 80.9816 36.1794 81.6422 36.1794C82.679 36.1794 83.4534 36.0601 83.9654 35.8214C84.4909 35.5828 84.7533 35.1056 84.7533 34.3897C84.7533 33.9521 84.646 33.6008 84.4305 33.3357C84.215 33.0706 83.858 32.8452 83.3596 32.6596C82.8611 32.4607 82.1741 32.2552 81.2988 32.0432C79.8972 31.6852 78.9144 31.2344 78.3484 30.6909C77.7823 30.1341 77.5 29.3718 77.5 28.404C77.5 27.2771 77.9174 26.3955 78.7523 25.7592C79.5878 25.1228 80.8337 24.8047 82.4906 24.8047C83.2451 24.8047 83.9519 24.8577 84.6118 24.9638C85.286 25.0698 85.8108 25.1891 86.1884 25.3217V27.2308C85.1644 26.8463 84.033 26.6541 82.7935 26.6541C81.8236 26.6541 81.0691 26.78 80.5308 27.0319C79.9917 27.2838 79.7222 27.7411 79.7222 28.404C79.7222 28.7885 79.8168 29.1 80.0052 29.3387C80.1937 29.5773 80.5172 29.7828 80.9752 29.9551C81.4467 30.1274 82.0931 30.3197 82.9151 30.5318C83.9789 30.7969 84.801 31.1151 85.3798 31.4864C85.9729 31.8443 86.3832 32.2685 86.6122 32.759C86.8547 33.2363 86.9763 33.7798 86.9763 34.3897C86.9763 35.5165 86.5517 36.4048 85.7034 37.0544C84.8543 37.6907 83.5679 38.0089 81.8442 38.0089Z" fill="white"/>
<path d="M72.748 28.7321L73.819 24.791H75.739L74.4056 28.7321H72.748Z" fill="white"/>
<path d="M59.6719 38.0088V24.9932H61.6121L68.4028 34.573V24.9932H70.5856V38.0088H68.6453L61.8748 28.4492V38.0088H59.6719Z" fill="white"/>
<path d="M46.4473 38.0088V24.9932H48.6502V30.6521H54.9155V24.9932H57.1184V38.0088H54.9155V32.3498H48.6502V38.0088H46.4473Z" fill="white"/>
<path d="M35.7849 37.9865C33.0632 37.9865 31.0264 37.2748 29.6744 35.8518C28.3225 34.4108 27.6465 32.1872 27.6465 29.1808C27.6465 26.05 28.3225 23.7819 29.6744 22.3766C31.0264 20.9712 33.0632 20.2686 35.7849 20.2686C38.5245 20.2686 40.5613 20.9712 41.8955 22.3766C43.2475 23.7819 43.9235 26.05 43.9235 29.1808C43.9235 32.1872 43.2475 34.4108 41.8955 35.8518C40.5613 37.2748 38.5245 37.9865 35.7849 37.9865ZM35.7849 35.5316C37.5816 35.5316 38.898 35.0423 39.7341 34.064C40.588 33.0678 41.0149 31.44 41.0149 29.1808C41.0149 26.7971 40.588 25.1338 39.7341 24.191C38.898 23.2304 37.5816 22.7501 35.7849 22.7501C34.006 22.7501 32.6897 23.2304 31.8358 24.191C30.9997 25.1338 30.5817 26.7971 30.5817 29.1808C30.5817 31.44 30.9997 33.0678 31.8358 34.064C32.6897 35.0423 34.006 35.5316 35.7849 35.5316Z" fill="#FF0000"/>
<path d="M140.242 38.0089C137.523 38.0089 135.489 37.2982 134.139 35.8769C132.788 34.4379 132.113 32.217 132.113 29.2145C132.113 26.0876 132.788 23.8223 134.139 22.4188C135.489 21.0152 137.523 20.3135 140.242 20.3135C142.978 20.3135 145.013 21.0152 146.345 22.4188C147.696 23.8223 148.371 26.0876 148.371 29.2145C148.371 32.217 147.696 34.4379 146.345 35.8769C145.013 37.2982 142.978 38.0089 140.242 38.0089ZM140.242 35.5571C142.037 35.5571 143.352 35.0685 144.187 34.0914C145.04 33.0965 145.466 31.4708 145.466 29.2145C145.466 26.8337 145.04 25.1726 144.187 24.231C143.352 23.2716 142.037 22.7918 140.242 22.7918C138.466 22.7918 137.15 23.2716 136.297 24.231C135.463 25.1726 135.045 26.8337 135.045 29.2145C135.045 31.4708 135.463 33.0965 136.297 34.0914C137.15 35.0685 138.466 35.5571 140.242 35.5571Z" fill="#FF0000"/>
<path d="M20.8287 38.0089C19.7204 38.0089 18.7742 37.8563 17.9902 37.5509V35.7187C18.3146 35.8514 18.6931 35.9643 19.1256 36.0572C19.5717 36.1369 20.0109 36.1768 20.4435 36.1768C21.3491 36.1768 21.9776 35.9975 22.329 35.639C22.6939 35.2673 22.8764 34.6765 22.8764 33.8666V24.9844H25.0864V34.225C25.0864 35.4465 24.7282 36.3826 24.0119 37.0331C23.309 37.6837 22.2479 38.0089 20.8287 38.0089Z" fill="white"/>
<path d="M72.6247 13.7086C41.8258 10.7439 12.4404 20.2966 1.59766 25.4435C15.1168 20.228 49.1919 15.0676 66.9632 17.7231C84.874 20.3995 116.065 16.5908 127.903 9.79688C122.309 12.336 103.424 16.6732 72.6247 13.7086Z" fill="white"/>
<path d="M101.036 -0.29153C88.684 -1.93853 65.6256 7.53173 55.6406 12.4727C64.013 10.2768 81.2522 4.38581 85.0808 3.62008C92.2865 2.17895 98.0508 1.25251 109.786 3.62008C113.697 4.13477 141.559 10.5855 155.388 14.4286C153.741 14.9776 148.297 15.2095 145.608 14.4286C138.266 12.2961 128.924 13.8905 125.152 14.9234C123.277 15.4367 109.958 16.9677 103.198 17.7226C107.83 17.7226 123.573 19.4333 132.495 17.3712C137.256 16.2709 140.939 14.9234 149.988 18.3144C158.751 21.5977 166.402 12.0267 168.358 8.56106C165.475 11.5257 159.265 11.7178 156.52 11.4433C143.172 8.21795 113.389 1.35547 101.036 -0.29153Z" fill="white"/>
<path d="M20.8473 21.017C17.471 21.3464 10.5879 24.9972 7.56836 26.7816C21.9797 25.2169 25.5139 21.8748 25.4795 20.3994C25.3423 20.468 24.2237 20.6876 20.8473 21.017Z" fill="white"/>
</g>
<defs>
<clipPath id="clip0_1_302">
<rect width="168" height="48" fill="white"/>
</clipPath>
</defs>
</svg>
