<svg width="168" height="48" viewBox="0 0 168 48" fill="none" xmlns="http://www.w3.org/2000/svg">
<g clip-path="url(#clip0_1_11)">
<path d="M122.646 47.4919L124.38 41.1167H125.324L128.601 46.2445L130.004 41.1167H131.049L129.315 47.4919H128.359L125.081 42.3739L123.692 47.4919H122.646Z" fill="white"/>
<path d="M117.262 47.485C116.028 47.485 115.159 47.232 114.657 46.7261C114.154 46.2139 114.061 45.4039 114.376 44.2962C114.588 43.5534 114.886 42.9483 115.269 42.4809C115.661 42.0135 116.168 41.6676 116.79 41.4436C117.411 41.2194 118.173 41.1074 119.076 41.1074C120.302 41.1074 121.167 41.3635 121.669 41.8758C122.179 42.3816 122.277 43.1884 121.962 44.2962C121.647 45.4039 121.116 46.2139 120.366 46.7261C119.625 47.232 118.59 47.485 117.262 47.485ZM117.454 46.8126C118.076 46.8126 118.612 46.7326 119.063 46.5725C119.514 46.4124 119.893 46.1498 120.2 45.7849C120.506 45.4135 120.745 44.9173 120.915 44.2962C121.094 43.675 121.145 43.182 121.069 42.817C121 42.4457 120.788 42.1799 120.43 42.0198C120.081 41.8598 119.565 41.7797 118.884 41.7797C118.263 41.7797 117.726 41.8598 117.275 42.0198C116.824 42.1799 116.445 42.4457 116.138 42.817C115.84 43.182 115.602 43.675 115.423 44.2962C115.252 44.9173 115.197 45.4135 115.257 45.7849C115.325 46.1498 115.538 46.4124 115.895 46.5725C116.253 46.7326 116.773 46.8126 117.454 46.8126Z" fill="white"/>
<path d="M110.955 47.4919L112.689 41.1167H113.735L112 47.4919H110.955Z" fill="white"/>
<path d="M106.252 47.485C105.29 47.485 104.493 47.3889 103.863 47.1968L104.055 46.4957C104.387 46.5981 104.745 46.6781 105.128 46.7358C105.519 46.787 105.928 46.8126 106.354 46.8126C107.086 46.8126 107.653 46.739 108.052 46.5917C108.461 46.438 108.725 46.1659 108.845 45.7753C108.921 45.5192 108.904 45.3239 108.793 45.1894C108.682 45.0485 108.47 44.9301 108.155 44.834C107.848 44.738 107.422 44.6355 106.878 44.5267C106.044 44.3538 105.477 44.1328 105.179 43.864C104.889 43.595 104.8 43.2428 104.911 42.8074C105.056 42.2824 105.409 41.8694 105.971 41.5684C106.541 41.2611 107.367 41.1074 108.449 41.1074C108.926 41.1074 109.359 41.133 109.751 41.1842C110.143 41.2354 110.441 41.2899 110.645 41.3475L110.454 42.039C110.173 41.9558 109.858 41.8918 109.509 41.847C109.168 41.8021 108.806 41.7797 108.423 41.7797C107.725 41.7797 107.163 41.8566 106.737 42.0102C106.32 42.1639 106.061 42.4297 105.958 42.8074C105.898 43.0187 105.916 43.1884 106.009 43.3165C106.103 43.4446 106.295 43.5566 106.584 43.6526C106.873 43.7423 107.287 43.8415 107.823 43.9504C108.725 44.1296 109.325 44.3666 109.623 44.6611C109.93 44.9557 110.019 45.3271 109.892 45.7753C109.738 46.3196 109.372 46.7422 108.793 47.0431C108.215 47.3377 107.367 47.485 106.252 47.485Z" fill="white"/>
<path d="M101.033 47.485L102.77 41.1074H103.818L102.081 47.485H101.033Z" fill="white"/>
<path d="M94.3418 47.485L96.0712 41.1074H97.1137L95.5493 46.8511H99.9105L99.7455 47.485H94.3418Z" fill="white"/>
<path d="M87.6055 47.485L89.3491 41.1074H90.4001L88.8236 46.8511H93.2197L93.0533 47.485H87.6055Z" fill="white"/>
<path d="M82.2308 47.485C80.9963 47.485 80.1273 47.232 79.6253 46.7261C79.1225 46.2139 79.0293 45.4039 79.3444 44.2962C79.557 43.5534 79.855 42.9483 80.2382 42.4809C80.6301 42.0135 81.1364 41.6676 81.7579 41.4436C82.3801 41.2194 83.1417 41.1074 84.0448 41.1074C85.2708 41.1074 86.1348 41.3635 86.6375 41.8758C87.1481 42.3816 87.2462 43.1884 86.9312 44.2962C86.6162 45.4039 86.0836 46.2139 85.3348 46.7261C84.5938 47.232 83.5591 47.485 82.2308 47.485ZM82.4221 46.8126C83.0443 46.8126 83.5805 46.7326 84.032 46.5725C84.4829 46.4124 84.8619 46.1498 85.1684 45.7849C85.4749 45.4135 85.7138 44.9173 85.8838 44.2962C86.063 43.675 86.1134 43.182 86.0373 42.817C85.9691 42.4457 85.7558 42.1799 85.3988 42.0198C85.0496 41.8598 84.5341 41.7797 83.8528 41.7797C83.2313 41.7797 82.6951 41.8598 82.2436 42.0198C81.792 42.1799 81.413 42.4457 81.1065 42.817C80.8086 43.182 80.5703 43.675 80.3918 44.2962C80.2212 44.9173 80.1657 45.4135 80.2254 45.7849C80.2937 46.1498 80.5063 46.4124 80.864 46.5725C81.2217 46.7326 81.7408 46.8126 82.4221 46.8126Z" fill="white"/>
<path d="M74.8082 47.485C73.9683 47.485 73.29 47.3601 72.773 47.1103C72.2555 46.8542 71.912 46.4989 71.7424 46.0442C71.5728 45.5832 71.5728 45.0453 71.7424 44.4307C71.9375 43.7583 72.23 43.1724 72.6202 42.6729C73.019 42.1735 73.5445 41.7893 74.1973 41.5204C74.8501 41.245 75.6516 41.1074 76.6016 41.1074C77.0766 41.1074 77.4962 41.133 77.861 41.1842C78.2336 41.2354 78.5771 41.3059 78.8914 41.3956L78.7001 42.087C78.3865 41.991 78.0473 41.9174 77.6825 41.8662C77.3177 41.8085 76.9237 41.7797 76.4999 41.7797C75.4567 41.7797 74.634 42.0166 74.0324 42.4905C73.4386 42.9579 73.0226 43.6046 72.7858 44.4307C72.6413 44.9365 72.6116 45.3687 72.6965 45.7273C72.79 46.0794 73.0268 46.3484 73.4087 46.5341C73.7991 46.7197 74.363 46.8126 75.1004 46.8126C75.4823 46.8126 75.8763 46.7902 76.2837 46.7454C76.6905 46.7005 77.0766 46.6301 77.4407 46.5341L77.2501 47.2352C76.9024 47.3121 76.5248 47.3729 76.118 47.4177C75.7198 47.4625 75.2825 47.485 74.8082 47.485Z" fill="white"/>
<path d="M62.7112 47.485L63.362 45.1082L61.5117 41.1074H62.5453L64.0128 44.415L67.2924 41.1074H68.4282L64.4084 45.1082L63.7576 47.485H62.7112Z" fill="white"/>
<path d="M52.9336 47.485L54.6719 41.1074H57.8928C59.0346 41.1074 59.8271 41.3582 60.2702 41.86C60.7133 42.3618 60.7772 43.187 60.4619 44.3358C60.2659 45.062 59.9933 45.6595 59.6439 46.1282C59.3031 46.5904 58.8557 46.9337 58.3018 47.1581C57.7565 47.376 57.0791 47.485 56.2696 47.485H52.9336ZM54.1479 46.8511H56.129C56.7084 46.8511 57.2069 46.7851 57.6244 46.6531C58.0505 46.5144 58.4084 46.2635 58.6981 45.9005C58.9963 45.5374 59.2349 45.0158 59.4138 44.3358C59.6013 43.636 59.6695 43.1012 59.6183 42.7315C59.5757 42.3551 59.384 42.0977 59.0432 41.959C58.7109 41.8204 58.2081 41.7511 57.535 41.7511H55.5538L54.1479 46.8511Z" fill="white"/>
<path d="M47.5847 47.485C46.3569 47.485 45.4933 47.232 44.9937 46.7261C44.4942 46.2139 44.401 45.4039 44.7143 44.2962C44.926 43.5534 45.2224 42.9483 45.6034 42.4809C45.9928 42.0135 46.4967 41.6676 47.1148 41.4436C47.7329 41.2194 48.4906 41.1074 49.3882 41.1074C50.6075 41.1074 51.4668 41.3635 51.9664 41.8758C52.4744 42.3816 52.5718 43.1884 52.2585 44.2962C51.9452 45.4039 51.4161 46.2139 50.671 46.7261C49.9343 47.232 48.9056 47.485 47.5847 47.485ZM47.7752 46.8126C48.3933 46.8126 48.9267 46.7326 49.3755 46.5725C49.8242 46.4124 50.201 46.1498 50.5058 45.7849C50.8106 45.4135 51.0477 44.9173 51.2171 44.2962C51.3949 43.675 51.4456 43.182 51.3695 42.817C51.3017 42.4457 51.09 42.1799 50.7345 42.0198C50.3873 41.8598 49.875 41.7797 49.1977 41.7797C48.5796 41.7797 48.0461 41.8598 47.5974 42.0198C47.1486 42.1799 46.7718 42.4457 46.467 42.817C46.1707 43.182 45.9336 43.675 45.7558 44.2962C45.5864 44.9173 45.5314 45.4135 45.5906 45.7849C45.6584 46.1498 45.8701 46.4124 46.2257 46.5725C46.5813 46.7326 47.0978 46.8126 47.7752 46.8126Z" fill="white"/>
<path d="M36.0898 47.4919L37.824 41.1167H41.5473C42.3294 41.1167 42.8862 41.2653 43.2177 41.5622C43.5578 41.8526 43.6556 42.2651 43.511 42.7996C43.3155 43.5057 42.8437 43.9743 42.0957 44.2053C42.5037 44.3109 42.7927 44.4891 42.9627 44.7399C43.1328 44.9906 43.1625 45.3008 43.052 45.6704C42.865 46.2841 42.542 46.7428 42.0829 47.0464C41.6239 47.3433 40.9608 47.4919 40.0937 47.4919H36.0898ZM38.1045 43.9083H40.7951C41.3136 43.9083 41.7088 43.8126 41.9809 43.6212C42.2529 43.4233 42.4314 43.1692 42.5164 42.859C42.5844 42.6148 42.5972 42.4102 42.5547 42.2452C42.5207 42.0803 42.3974 41.9549 42.1849 41.8691C41.9809 41.7833 41.6536 41.7404 41.2031 41.7404H38.7038L38.1045 43.9083ZM37.3012 46.8781H40.081C40.6335 46.8781 41.0628 46.7857 41.3688 46.6009C41.6748 46.4095 41.8874 46.0894 42.0064 45.6407C42.0744 45.3965 42.0829 45.1919 42.0319 45.027C41.9809 44.862 41.8406 44.7365 41.6111 44.6508C41.3816 44.565 41.0288 44.5221 40.5528 44.5221H37.9387L37.3012 46.8781Z" fill="white"/>
<path d="M124.013 38.0085V26.7108H119.85V24.9929H130.359V26.7108H126.216V38.0085H124.013Z" fill="white"/>
<path d="M112.575 38.0085C110.784 38.0085 109.39 37.5836 108.393 36.7339C107.409 35.8842 106.918 34.6561 106.918 33.0496V24.9839H109.12V32.9699C109.12 34.0454 109.416 34.8486 110.009 35.3796C110.615 35.9107 111.471 36.1763 112.575 36.1763C113.666 36.1763 114.508 35.9107 115.1 35.3796C115.706 34.8486 116.009 34.0454 116.009 32.9699V24.9839H118.191V33.0496C118.191 34.6561 117.699 35.8842 116.716 36.7339C115.733 37.5836 114.353 38.0085 112.575 38.0085Z" fill="white"/>
<path d="M93.3926 38.0085L98.3647 24.9929H100.83L105.762 38.0085H103.498L102.205 34.6536H96.9702L95.6767 38.0085H93.3926ZM97.3136 32.9559H101.841L99.5771 26.9938L97.3136 32.9559Z" fill="white"/>
<path d="M81.8442 38.0084C80.1603 38.0084 78.8063 37.7963 77.7823 37.372V35.463C78.3619 35.6751 78.9812 35.8475 79.6419 35.98C80.3153 36.1126 80.9816 36.1789 81.6422 36.1789C82.679 36.1789 83.4534 36.0596 83.9654 35.8209C84.4909 35.5823 84.7533 35.1051 84.7533 34.3892C84.7533 33.9516 84.646 33.6004 84.4305 33.3352C84.215 33.0701 83.858 32.8447 83.3596 32.6591C82.8611 32.4602 82.1741 32.2547 81.2988 32.0427C79.8972 31.6847 78.9144 31.2339 78.3484 30.6904C77.7823 30.1336 77.5 29.3713 77.5 28.4036C77.5 27.2767 77.9174 26.395 78.7523 25.7587C79.5878 25.1224 80.8337 24.8042 82.4906 24.8042C83.2451 24.8042 83.9519 24.8572 84.6118 24.9633C85.286 25.0693 85.8108 25.1886 86.1884 25.3212V27.2303C85.1644 26.8458 84.033 26.6536 82.7935 26.6536C81.8236 26.6536 81.0691 26.7795 80.5308 27.0314C79.9917 27.2833 79.7222 27.7407 79.7222 28.4036C79.7222 28.788 79.8168 29.0995 80.0052 29.3382C80.1937 29.5768 80.5172 29.7823 80.9752 29.9546C81.4467 30.1269 82.0931 30.3192 82.9151 30.5313C83.9789 30.7964 84.801 31.1146 85.3798 31.4859C85.9729 31.8438 86.3832 32.268 86.6122 32.7585C86.8547 33.2358 86.9763 33.7793 86.9763 34.3892C86.9763 35.516 86.5517 36.4043 85.7034 37.0539C84.8543 37.6902 83.5679 38.0084 81.8442 38.0084Z" fill="white"/>
<path d="M72.748 28.7318L73.819 24.7908H75.739L74.4056 28.7318H72.748Z" fill="white"/>
<path d="M59.6719 38.0085V24.9929H61.6121L68.4028 34.5727V24.9929H70.5856V38.0085H68.6453L61.8748 28.4489V38.0085H59.6719Z" fill="white"/>
<path d="M46.4473 38.0085V24.9929H48.6502V30.6519H54.9155V24.9929H57.1184V38.0085H54.9155V32.3496H48.6502V38.0085H46.4473Z" fill="white"/>
<path d="M35.7849 37.986C33.0632 37.986 31.0264 37.2744 29.6744 35.8513C28.3225 34.4104 27.6465 32.1867 27.6465 29.1804C27.6465 26.0495 28.3225 23.7814 29.6744 22.3761C31.0264 20.9707 33.0632 20.2681 35.7849 20.2681C38.5245 20.2681 40.5613 20.9707 41.8955 22.3761C43.2475 23.7814 43.9235 26.0495 43.9235 29.1804C43.9235 32.1867 43.2475 34.4104 41.8955 35.8513C40.5613 37.2744 38.5245 37.986 35.7849 37.986ZM35.7849 35.5311C37.5816 35.5311 38.898 35.0418 39.7341 34.0635C40.588 33.0673 41.0149 31.4396 41.0149 29.1804C41.0149 26.7966 40.588 25.1333 39.7341 24.1906C38.898 23.2299 37.5816 22.7496 35.7849 22.7496C34.006 22.7496 32.6897 23.2299 31.8358 24.1906C30.9997 25.1333 30.5817 26.7966 30.5817 29.1804C30.5817 31.4396 30.9997 33.0673 31.8358 34.0635C32.6897 35.0418 34.006 35.5311 35.7849 35.5311Z" fill="white"/>
<path d="M140.242 38.0084C137.523 38.0084 135.489 37.2977 134.139 35.8764C132.788 34.4374 132.113 32.2165 132.113 29.214C132.113 26.0871 132.788 23.8218 134.139 22.4183C135.489 21.0147 137.523 20.313 140.242 20.313C142.978 20.313 145.013 21.0147 146.345 22.4183C147.696 23.8218 148.371 26.0871 148.371 29.214C148.371 32.2165 147.696 34.4374 146.345 35.8764C145.013 37.2977 142.978 38.0084 140.242 38.0084ZM140.242 35.5567C142.037 35.5567 143.352 35.068 144.187 34.0909C145.04 33.096 145.466 31.4703 145.466 29.214C145.466 26.8332 145.04 25.1721 144.187 24.2305C143.352 23.2711 142.037 22.7914 140.242 22.7914C138.466 22.7914 137.15 23.2711 136.297 24.2305C135.463 25.1721 135.045 26.8332 135.045 29.214C135.045 31.4703 135.463 33.096 136.297 34.0909C137.15 35.068 138.466 35.5567 140.242 35.5567Z" fill="white"/>
<path d="M20.8287 38.0085C19.7204 38.0085 18.7742 37.8558 17.9902 37.5504V35.7182C18.3146 35.8509 18.6931 35.9638 19.1256 36.0567C19.5717 36.1365 20.0109 36.1763 20.4435 36.1763C21.3491 36.1763 21.9776 35.997 22.329 35.6385C22.6939 35.2668 22.8764 34.676 22.8764 33.8661V24.9839H25.0864V34.2246C25.0864 35.446 24.7282 36.3821 24.0119 37.0326C23.309 37.6832 22.2479 38.0085 20.8287 38.0085Z" fill="white"/>
<path d="M72.6247 13.7081C41.8258 10.7434 12.4404 20.2961 1.59766 25.443C15.1168 20.2275 49.1919 15.0671 66.9632 17.7226C84.874 20.399 116.065 16.5903 127.903 9.79639C122.309 12.3356 103.424 16.6727 72.6247 13.7081Z" fill="white"/>
<path d="M101.036 -0.29153C88.684 -1.93853 65.6256 7.53173 55.6406 12.4727C64.013 10.2768 81.2522 4.38581 85.0808 3.62008C92.2865 2.17895 98.0508 1.25251 109.786 3.62008C113.697 4.13477 141.559 10.5855 155.388 14.4286C153.741 14.9776 148.297 15.2095 145.608 14.4286C138.266 12.2961 128.924 13.8905 125.152 14.9234C123.277 15.4367 109.958 16.9677 103.198 17.7226C107.83 17.7226 123.573 19.4333 132.495 17.3712C137.256 16.2709 140.939 14.9234 149.988 18.3144C158.751 21.5977 166.402 12.0267 168.358 8.56106C165.475 11.5257 159.265 11.7178 156.52 11.4433C143.172 8.21795 113.389 1.35547 101.036 -0.29153Z" fill="white"/>
<path d="M20.8473 21.0165C17.471 21.3459 10.5879 24.9968 7.56836 26.7811C21.9797 25.2164 25.5139 21.8743 25.4795 20.3989C25.3423 20.4675 24.2237 20.6871 20.8473 21.0165Z" fill="white"/>
</g>
<defs>
<clipPath id="clip0_1_11">
<rect width="168" height="48" fill="white"/>
</clipPath>
</defs>
</svg>
